<?xml version="1.0" encoding="UTF-8" standalone="no"?><!DOCTYPE svg PUBLIC "-//W3C//DTD SVG 1.1//EN" "http://www.w3.org/Graphics/SVG/1.1/DTD/svg11.dtd"><svg width="100%" height="100%" viewBox="0 0 175 175" version="1.1" xmlns="http://www.w3.org/2000/svg" xmlns:xlink="http://www.w3.org/1999/xlink" xml:space="preserve" xmlns:serif="http://www.serif.com/" style="fill-rule:evenodd;clip-rule:evenodd;stroke-linecap:round;stroke-linejoin:round;stroke-miterlimit:1.5;"><circle cx="87.568" cy="87.568" r="83.401" style="fill:none;"/><clipPath id="_clip1"><circle cx="87.568" cy="87.568" r="83.401"/></clipPath><g clip-path="url(#_clip1)"><g><path d="M138.274,23.595c20.329,-20.329 20.329,20.605 40.934,0" style="fill:none;stroke:#333;stroke-width:2.08px;"/><path d="M138.274,43.794c20.329,-20.328 20.329,20.605 40.934,0" style="fill:none;stroke:#333;stroke-width:2.08px;"/><path d="M138.274,63.994c20.329,-20.329 20.329,20.605 40.934,0" style="fill:none;stroke:#333;stroke-width:2.08px;"/><path d="M138.274,84.193c20.329,-20.328 20.329,20.605 40.934,0" style="fill:none;stroke:#333;stroke-width:2.08px;"/><path d="M138.274,104.393c20.329,-20.329 20.329,20.605 40.934,0" style="fill:none;stroke:#333;stroke-width:2.08px;"/><path d="M138.274,124.592c20.329,-20.328 20.329,20.605 40.934,0" style="fill:none;stroke:#333;stroke-width:2.08px;"/><path d="M138.274,144.792c20.329,-20.329 20.329,20.605 40.934,0" style="fill:none;stroke:#333;stroke-width:2.08px;"/><path d="M138.274,164.991c20.329,-20.328 20.329,20.605 40.934,0" style="fill:none;stroke:#333;stroke-width:2.08px;"/><path d="M97.34,23.595c20.329,-20.329 20.329,20.605 40.934,0" style="fill:none;stroke:#333;stroke-width:2.08px;"/><path d="M97.34,43.794c20.329,-20.328 20.329,20.605 40.934,0" style="fill:none;stroke:#333;stroke-width:2.08px;"/><path d="M97.34,63.994c20.329,-20.329 20.329,20.605 40.934,0" style="fill:none;stroke:#333;stroke-width:2.08px;"/><path d="M97.34,84.193c20.329,-20.328 20.329,20.605 40.934,0" style="fill:none;stroke:#333;stroke-width:2.08px;"/><path d="M97.34,104.393c20.329,-20.329 20.329,20.605 40.934,0" style="fill:none;stroke:#333;stroke-width:2.08px;"/><path d="M97.34,124.592c20.329,-20.328 20.329,20.605 40.934,0" style="fill:none;stroke:#333;stroke-width:2.08px;"/><path d="M97.34,144.792c20.329,-20.329 20.329,20.605 40.934,0" style="fill:none;stroke:#333;stroke-width:2.08px;"/><path d="M97.34,164.991c20.329,-20.328 20.329,20.605 40.934,0" style="fill:none;stroke:#333;stroke-width:2.08px;"/><path d="M56.407,23.595c20.328,-20.329 20.328,20.605 40.933,0" style="fill:none;stroke:#333;stroke-width:2.08px;"/><path d="M56.407,43.794c20.328,-20.328 20.328,20.605 40.933,0" style="fill:none;stroke:#333;stroke-width:2.08px;"/><path d="M56.407,63.994c20.328,-20.329 20.328,20.605 40.933,0" style="fill:none;stroke:#333;stroke-width:2.08px;"/><path d="M56.407,84.193c20.328,-20.328 20.328,20.605 40.933,0" style="fill:none;stroke:#333;stroke-width:2.08px;"/><path d="M56.407,104.393c20.328,-20.329 20.328,20.605 40.933,0" style="fill:none;stroke:#333;stroke-width:2.08px;"/><path d="M56.407,124.592c20.328,-20.328 20.328,20.605 40.933,0" style="fill:none;stroke:#333;stroke-width:2.08px;"/><path d="M56.407,144.792c20.328,-20.329 20.328,20.605 40.933,0" style="fill:none;stroke:#333;stroke-width:2.08px;"/><path d="M56.407,164.991c20.328,-20.328 20.328,20.605 40.933,0" style="fill:none;stroke:#333;stroke-width:2.08px;"/><path d="M15.473,23.595c20.329,-20.329 20.329,20.605 40.934,0" style="fill:none;stroke:#333;stroke-width:2.08px;"/><path d="M15.473,43.794c20.329,-20.328 20.329,20.605 40.934,0" style="fill:none;stroke:#333;stroke-width:2.08px;"/><path d="M15.473,63.994c20.329,-20.329 20.329,20.605 40.934,0" style="fill:none;stroke:#333;stroke-width:2.08px;"/><path d="M15.473,84.193c20.329,-20.328 20.329,20.605 40.934,0" style="fill:none;stroke:#333;stroke-width:2.08px;"/><path d="M15.473,104.393c20.329,-20.329 20.329,20.605 40.934,0" style="fill:none;stroke:#333;stroke-width:2.08px;"/><path d="M15.473,124.592c20.329,-20.328 20.329,20.605 40.934,0" style="fill:none;stroke:#333;stroke-width:2.08px;"/><path d="M15.473,144.792c20.329,-20.329 20.329,20.605 40.934,0" style="fill:none;stroke:#333;stroke-width:2.08px;"/><path d="M15.473,164.991c20.329,-20.328 20.329,20.605 40.934,0" style="fill:none;stroke:#333;stroke-width:2.08px;"/><path d="M-25.461,23.595c20.329,-20.329 20.329,20.605 40.934,0" style="fill:none;stroke:#333;stroke-width:2.08px;"/><path d="M-25.461,43.794c20.329,-20.328 20.329,20.605 40.934,0" style="fill:none;stroke:#333;stroke-width:2.08px;"/><path d="M-25.461,63.994c20.329,-20.329 20.329,20.605 40.934,0" style="fill:none;stroke:#333;stroke-width:2.08px;"/><path d="M-25.461,84.193c20.329,-20.328 20.329,20.605 40.934,0" style="fill:none;stroke:#333;stroke-width:2.08px;"/><path d="M-25.461,104.393c20.329,-20.329 20.329,20.605 40.934,0" style="fill:none;stroke:#333;stroke-width:2.08px;"/><path d="M-25.461,124.592c20.329,-20.328 20.329,20.605 40.934,0" style="fill:none;stroke:#333;stroke-width:2.08px;"/><path d="M-25.461,144.792c20.329,-20.329 20.329,20.605 40.934,0" style="fill:none;stroke:#333;stroke-width:2.08px;"/><path d="M-25.461,164.991c20.329,-20.328 20.329,20.605 40.934,0" style="fill:none;stroke:#333;stroke-width:2.08px;"/></g></g><circle cx="87.568" cy="87.568" r="83.401" style="fill:none;stroke:#333;stroke-width:6.25px;"/></svg>